<!DOCTYPE svg PUBLIC "-//W3C//DTD SVG 1.1//EN" "http://www.w3.org/Graphics/SVG/1.1/DTD/svg11.dtd">
<!-- Uploaded to: SVG Repo, www.svgrepo.com, Transformed by: SVG Repo Mixer Tools -->
<svg fill="#000000" height="64px" width="64px" version="1.1" id="Layer_1" xmlns="http://www.w3.org/2000/svg" xmlns:xlink="http://www.w3.org/1999/xlink" viewBox="0 0 512 512" xml:space="preserve" transform="rotate(0)">
<g id="SVGRepo_bgCarrier" stroke-width="0"/>
<g id="SVGRepo_tracerCarrier" stroke-linecap="round" stroke-linejoin="round"/>
<g id="SVGRepo_iconCarrier"> <g> <g> <g> <path d="M469.337,154.624c6.818,0,13.636-2.594,18.833-7.791c10.385-10.377,10.385-27.281,0-37.666l-34.133-34.133 c-10.385-10.377-27.29-10.377-37.666,0c-8.269,8.269-9.847,20.608-4.958,30.558l-13.85,13.85 c-30.148-25.037-66.995-42.274-107.426-48.538V51.2H306.7c9.685,0,17.57-7.876,17.57-17.562V17.57 C324.27,7.885,316.385,0,306.7,0H205.298c-9.685,0-17.562,7.885-17.562,17.57v16.068c0,9.685,7.876,17.562,17.562,17.562h16.572 v19.703c-40.431,6.263-77.286,23.501-107.426,48.538l-13.858-13.85c4.89-9.95,3.311-22.289-4.949-30.558 c-10.385-10.377-27.29-10.377-37.666,0l-34.133,34.133c-10.394,10.385-10.394,27.29,0,37.666 c5.188,5.197,12.006,7.791,18.833,7.791c6.025,0,11.981-2.15,16.888-6.195l14.694,14.694 c-25.242,36.011-40.115,79.795-40.115,127.01C34.137,412.476,133.661,512,256.003,512c122.334,0,221.867-99.524,221.867-221.867 c0-47.215-14.874-90.999-40.124-127.01l14.703-14.694C457.347,152.474,463.303,154.624,469.337,154.624z M238.937,51.2h34.133 v17.758c-0.324-0.026-0.623-0.017-0.939-0.034c-5.333-0.393-10.701-0.657-16.128-0.657c-5.436,0-10.795,0.265-16.128,0.657 c-0.324,0.017-0.623,0.009-0.939,0.034V51.2z M71.803,136.533l17.801-17.801l12.058,12.066 c-6.059,5.862-11.767,12.049-17.092,18.509L71.803,136.533z M443.737,290.133c0,51.592-20.924,98.372-54.716,132.343 c-0.119,0.119-0.154,0.282-0.273,0.41c-0.119,0.119-0.282,0.154-0.41,0.265c-33.963,33.801-80.751,54.716-132.335,54.716 c-51.593,0-98.372-20.915-132.344-54.716c-0.119-0.111-0.282-0.145-0.41-0.265c-0.119-0.128-0.154-0.29-0.265-0.41 C89.185,388.506,68.27,341.726,68.27,290.133c0-51.584,20.915-98.372,54.716-132.335c0.111-0.128,0.145-0.29,0.265-0.41 c0.128-0.119,0.29-0.154,0.41-0.265c33.971-33.801,80.751-54.724,132.344-54.724c51.584,0,98.372,20.924,132.335,54.724 c0.128,0.111,0.29,0.145,0.41,0.265c0.12,0.119,0.154,0.282,0.273,0.41C422.813,191.761,443.737,238.549,443.737,290.133z M427.429,149.308c-5.325-6.46-11.034-12.646-17.084-18.509l12.058-12.066l17.8,17.801L427.429,149.308z"/> <path d="M401.066,281.604h25.165c-2.022-40.61-18.227-77.457-43.861-105.771l-17.758,17.758c-1.664,1.664-3.849,2.5-6.033,2.5 c-2.185,0-4.369-0.836-6.033-2.5c-3.337-3.336-3.337-8.73,0-12.066l17.758-17.758c-28.314-25.634-65.161-41.839-105.771-43.861 v25.165c0,4.71-3.823,8.533-8.533,8.533s-8.533-3.823-8.533-8.533v-25.165c-40.61,2.022-77.457,18.227-105.771,43.861 l17.758,17.758c3.337,3.337,3.337,8.73,0,12.066c-1.664,1.664-3.849,2.5-6.033,2.5c-2.185,0-4.369-0.836-6.033-2.5 l-17.758-17.758c-25.634,28.314-41.839,65.161-43.861,105.771h25.165c4.71,0,8.533,3.823,8.533,8.533 c0,4.71-3.823,8.533-8.533,8.533H85.768c2.022,40.61,18.227,77.457,43.861,105.771l17.758-17.758 c3.337-3.336,8.73-3.336,12.066,0c3.337,3.337,3.337,8.73,0,12.066l-17.758,17.758c28.314,25.626,65.161,41.839,105.771,43.861 v-25.165c0-4.71,3.823-8.533,8.533-8.533s8.533,3.823,8.533,8.533v25.165c40.61-2.022,77.457-18.236,105.771-43.861 l-17.758-17.758c-3.337-3.337-3.337-8.73,0-12.066c3.337-3.336,8.73-3.336,12.066,0l17.758,17.758 c25.634-28.314,41.839-65.161,43.861-105.771h-25.165c-4.71,0-8.533-3.823-8.533-8.533 C392.533,285.427,396.356,281.604,401.066,281.604z M256,324.066c-18.765,0-34.031-15.266-34.031-34.031 c0-15.804,10.871-29.005,25.498-32.819v-78.012c0-4.71,3.823-8.533,8.533-8.533s8.533,3.823,8.533,8.533v78.012 c14.626,3.814,25.498,17.015,25.498,32.819C290.031,308.8,274.765,324.066,256,324.066z"/> <path d="M256,273.07c-9.353,0-16.964,7.612-16.964,16.964s7.612,16.964,16.964,16.964s16.964-7.612,16.964-16.964 S265.352,273.07,256,273.07z"/> </g> </g> </g> </g>
</svg>